<svg xmlns="http://www.w3.org/2000/svg" width="193" height="125" viewBox="0 0 193 125">
    <defs>
        <linearGradient id="a" x1="49.988%" x2="49.988%" y1="99.994%" y2="-.007%">
            <stop offset="0%" stop-color="gray" stop-opacity=".25"/>
            <stop offset="54%" stop-color="gray" stop-opacity=".12"/>
            <stop offset="100%" stop-color="gray" stop-opacity=".1"/>
        </linearGradient>
    </defs>
    <g fill="none" fill-rule="evenodd" transform="translate(-15 -21)">
        <path fill="#85848B" fill-rule="nonzero" d="M15.577 144.585h192.346v1.404H15.577z"/>
        <path fill="#504F60" fill-rule="nonzero" d="M167.965 119.796c0 1.08-6.302 4.228-13.788 4.228-7.487 0-13.32-3.148-13.32-4.228 0-1.08 6.068-.732 13.561-.732 7.494 0 13.547-.35 13.547.732z"/>
        <path fill="#000" fill-rule="nonzero" d="M167.965 119.796c0 1.08-6.302 4.228-13.788 4.228-7.487 0-13.32-3.148-13.32-4.228" opacity=".2"/>
        <path fill="#625EEB" fill-rule="nonzero" d="M92.574 99.98c1.215.156 2.476.255 3.64-.122.183-.057.384-.183.366-.366a.443.443 0 0 0-.083-.183 11.303 11.303 0 0 1-1.1-2.093.183.183 0 0 0-.067-.095.172.172 0 0 0-.117 0c-.537.141-1 .487-1.534.635a2.183 2.183 0 0 1-.836.063c-.242-.028-.572-.227-.792-.202.125.8.43 1.547.523 2.363zM115.553 97.954c.8-.549 1.63-1.126 2.104-1.973a.342.342 0 0 0 .056-.17.351.351 0 0 0-.067-.165 6.805 6.805 0 0 0-1.71-1.843c-.355.25-.675.545-.953.878-.202.213-.759.55-.764.873 0 .184.212.396.311.55.134.197.26.399.381.604.07.1.706 1.206.642 1.246z"/>
        <path fill="#514E7F" fill-rule="nonzero" d="M97.337 102.431a.814.814 0 0 1-.147.531.72.72 0 0 1-.308.183c-1.699.608-3.665-.15-5.36.448-.348.123-.678.3-1.028.418a5.6 5.6 0 0 1-1.283.227 27 27 0 0 1-1.803.11 4.341 4.341 0 0 1-1.36-.12 1.632 1.632 0 0 1-1.043-.825.792.792 0 0 1-.051-.587.633.633 0 0 1 .112-.183c.114-.13.25-.239.4-.324l.624-.403c.293-.207.611-.376.947-.502.248-.08.51-.115.761-.183.878-.256 1.549-.951 2.172-1.62l.85-.906c.08-.1.18-.18.295-.236a.818.818 0 0 1 .367-.034 4.904 4.904 0 0 1 2.318.776c.177.133.37.246.572.336.498.194 1.138.048 1.598-.197.218-.117.17-.183.262-.392.091-.209.315-.342.51-.152.058.066.1.145.12.23.183.605.114 1.255.114 1.888a.83.83 0 0 0 .036.293c.047.095.103.186.167.27a.617.617 0 0 1 .035.07c.112.28.154.584.123.884z"/>
        <path fill="#464353" fill-rule="nonzero" d="M97.337 102.431a.814.814 0 0 1-.147.531.72.72 0 0 1-.308.183c-1.699.608-3.665-.15-5.36.448-.348.123-.678.3-1.028.418a5.6 5.6 0 0 1-1.283.227 27 27 0 0 1-1.803.11 4.341 4.341 0 0 1-1.36-.12 1.632 1.632 0 0 1-1.043-.825.792.792 0 0 1-.051-.587.633.633 0 0 1 .112-.183c.099.206.17.48.232.58.17.296.46.505.796.573.248.015.496-.017.733-.094 1.54-.38 3.176-.386 4.655-.962.507-.2.991-.465 1.524-.586.534-.121 1.1-.088 1.65-.134.868-.07 1.71-.331 2.565-.468.11.282.15.588.116.89z"/>
        <path fill="#514E7F" fill-rule="nonzero" d="M119.443 97.842c-.08.645-.489 1.2-.938 1.67-.449.47-.957.893-1.314 1.435-.44.672-.638 1.504-1.21 2.072-.219.206-.466.382-.733.521a5.118 5.118 0 0 1-.943.434c-.854.273-1.774.21-2.667.145a2.401 2.401 0 0 1-.846-.163 2.552 2.552 0 0 1-.352-.216 1.68 1.68 0 0 1-.55-.55.549.549 0 0 1-.053-.398.937.937 0 0 1 .255-.388c.2-.209.416-.403.645-.58a3.86 3.86 0 0 0 .839-.733c.149-.224.259-.471.324-.732.13-.457.21-.926.237-1.4-.001-.315.031-.63.097-.937.135-.483.495-.915.454-1.415a.353.353 0 0 1 .019-.214.299.299 0 0 1 .168-.105c.28-.111.576-.18.876-.203.306-.02.604.096.814.319.125.15.207.366.39.424a.62.62 0 0 0 .279.011c.45-.045.927-.102 1.283-.393.332-.298.525-.72.531-1.166 0-.167-.075-.34.183-.366.195-.026.349.183.448.311.357.478.723.977.857 1.56a.46.46 0 0 1 .163-.032.71.71 0 0 1 .585.299c.146.236.202.516.16.79z"/>
        <path fill="#464353" fill-rule="nonzero" d="M119.443 97.842c-.08.645-.489 1.2-.938 1.67-.449.47-.957.893-1.314 1.435-.44.672-.638 1.504-1.21 2.072-.219.206-.466.382-.733.521a5.118 5.118 0 0 1-.943.434c-.854.273-1.774.21-2.667.145a2.401 2.401 0 0 1-.846-.163 2.552 2.552 0 0 1-.352-.216 1.68 1.68 0 0 1-.55-.55c.172-.082.36-.127.55-.131.396.022.685.395 1.064.51.541.164 1.08-.217 1.628-.347.357-.084.733-.062 1.087-.183.294-.114.567-.279.804-.487.325-.232.615-.511.86-.827.203-.317.372-.653.504-1.005.289-.674.63-1.325 1.018-1.948.058-.098.128-.19.208-.27.086-.08.183-.134.28-.204.366-.276.519-.732.647-1.179.035-.135.083-.267.145-.393a.71.71 0 0 1 .584.298c.158.242.22.534.174.818zM89.568 68.55c.242.914-.108 1.877-.394 2.783a21.554 21.554 0 0 0-.876 4.192c-.018.362-.091.719-.216 1.06-.136.305-.366.563-.524.854-.433.765-.422 1.699-.328 2.574.062.576.156 1.151.271 1.719.141.693.315 1.418.112 2.095.34-.075.572.366.55.712-.022.346-.134.732.033 1.03.421.155.425.733.412 1.181.007.778.105 1.552.293 2.307a366.857 366.857 0 0 0 2.03 9.163c1.55.48 3.358.979 4.835.314.275-.122.55-.318.612-.615a1.071 1.071 0 0 0-.058-.472l-.7-2.544c-.17-.615-.341-1.25-.252-1.882.068-.47.274-.977.043-1.393-.08-.142-.204-.254-.295-.39-.367-.536-.175-1.253-.145-1.903a1.506 1.506 0 0 0-.03-.436 2.173 2.173 0 0 0-.208-.477 7.3 7.3 0 0 1-.807-3.636.898.898 0 0 0-.064-.474 1.534 1.534 0 0 1-.12-.194.53.53 0 0 1 .04-.35c-.21-.158-.4-.343-.565-.548a.789.789 0 0 0 .136-1.234.412.412 0 0 0 .196-.708c-.09-.063-.21-.09-.273-.183-.1-.136-.019-.324.062-.469l.427-.77c.319-.574.39-1.282.733-1.831.491-.8.812-1.691 1.129-2.573l1.233-3.4.83.72c.277.21.509.475.682.776.118.298.193.61.222.93.304 1.845 1.466 3.445 1.897 5.262.095.405.159.83.392 1.175.083.106.158.219.223.337.061.18.093.368.094.558.078.752.479 1.434 1.1 1.867.408.28.916.472 1.137.915.045.138.106.269.184.39.198.238.625.266.709.564.048.167-.04.366.053.513.053.067.123.12.203.151l1.193.595c1.335.667 2.016 2.197 3 3.311.34.364.641.761.898 1.187.426.76.622 1.713 1.34 2.196.193.1.369.23.52.386.226.297.143.712.164 1.086.02.373.306.818.661.704-.124.453-.124.93 0 1.382a6.968 6.968 0 0 0 4.226-1.71c.348-.303.684-.691.687-1.152a.413.413 0 0 0-.051-.23.654.654 0 0 0-.27-.202c-1.115-.604-1.45-2.005-2.015-3.141-.493-1.003-1.223-1.867-1.833-2.799-1.327-2.004-2.232-4.43-4.239-5.753-.441-.29-.954-.549-1.176-1.03-.123-.27-.138-.577-.235-.855-.097-.278-.33-.55-.626-.55.164-.402.131-.892.142-1.328a1.677 1.677 0 0 0-.065-.573c-.077-.2-.176-.39-.296-.567a5.438 5.438 0 0 1-.755-2.929c.015-.529.109-1.074-.05-1.58-.082-.254-.223-.486-.32-.732a4.57 4.57 0 0 1-.229-1.376l-.11-1.76a8.644 8.644 0 0 0-.227-1.738c-.367-1.365-.733-7.085-1.988-7.73-1.256-.644-3.413 3.758-4.826 3.844a6.29 6.29 0 0 0-1.832.353c-.94.352-1.728 1.007-2.496 1.648l-2.599 2.18c-.55.452-1.004.884-1.61 1.202z"/>
        <path fill="#33323D" fill-rule="nonzero" d="M130.564 73.321v-2.273a6.315 6.315 0 0 0-6.32-6.31H34.359a6.315 6.315 0 0 0-6.32 6.31v4.191l102.526-1.918z"/>
        <path fill="#00D09C" fill-rule="nonzero" d="M59.363 62.073s-.256 15.899 2.566 21.13 4.032 27.988 4.032 27.988 29.585 3.057 50.202-3.66c20.617-6.718 64.485-9.465 64.485-9.465L173.256 48.3s-36.522-2.34-57.298 7.557c-20.776 9.897-56.595 6.216-56.595 6.216z"/>
        <path fill="#000" fill-rule="nonzero" d="M59.363 62.073s-.256 15.899 2.566 21.13 4.032 27.988 4.032 27.988 29.585 3.057 50.202-3.66c20.617-6.718 64.485-9.465 64.485-9.465L173.256 48.3s-36.522-2.34-57.298 7.557c-20.776 9.897-56.595 6.216-56.595 6.216z" opacity=".1"/>
        <path fill="#00D09C" fill-rule="nonzero" d="M65.911 67.881S64.986 81 67.308 85.191c2.322 4.191 2.43 22.903 2.43 22.903s26.626 1.234 45.565-5.205c18.94-6.44 58.74-10.616 58.74-10.616l-4.522-40.699s-32.932-.338-52.152 8.726S65.91 67.88 65.91 67.88z"/>
        <ellipse cx="115.244" cy="80.743" fill="#000" fill-rule="nonzero" opacity=".1" rx="6.912" ry="14.808" transform="rotate(-7.1 115.244 80.743)"/>
        <path fill="#000" fill-rule="nonzero" d="M153.233 24.057s-35.481 8.968-52.213 24.755C84.29 64.6 49.066 72.074 49.066 72.074s4.64 15.209 8.932 19.324c4.292 4.114 12.432 25.405 12.432 25.405s29.097-6.16 46.653-18.878c17.556-12.718 58.473-28.78 58.473-28.78l-22.323-45.088z" opacity=".2"/>
        <path fill="#00D09C" fill-rule="nonzero" d="M48.533 69.798s4.638 15.21 8.926 19.325c4.289 4.114 12.433 25.403 12.433 25.403s29.1-6.159 46.658-18.876c17.558-12.718 58.47-28.774 58.47-28.774l-22.322-45.095s-35.48 8.97-52.211 24.756c-16.732 15.787-51.954 23.26-51.954 23.26z"/>
        <path fill="#000" fill-rule="nonzero" d="M48.533 69.798s4.638 15.21 8.926 19.325c4.289 4.114 12.433 25.403 12.433 25.403s29.1-6.159 46.658-18.876c17.558-12.718 58.47-28.774 58.47-28.774l-22.322-45.095s-35.48 8.97-52.211 24.756c-16.732 15.787-51.954 23.26-51.954 23.26z" opacity=".1"/>
        <path fill="#00D09C" fill-rule="nonzero" d="M56.543 73.32s3.15 12.77 6.649 16.046c3.498 3.276 9.346 21.05 9.346 21.05s25.719-6.99 41.767-18.923c16.048-11.934 52.648-28.09 52.648-28.09L150.147 26.04s-31.446 9.768-46.955 24.287c-15.51 14.518-46.649 22.991-46.649 22.991z"/>
        <ellipse cx="107.453" cy="70.44" fill="#000" fill-rule="nonzero" opacity=".1" rx="6.911" ry="14.811" transform="rotate(-24.97 107.453 70.44)"/>
        <path fill="#000" fill-rule="nonzero" d="M132.99 75.552V138.7a5.457 5.457 0 0 1-1.602 3.861 5.47 5.47 0 0 1-3.867 1.599H33.51a5.463 5.463 0 0 1-5.465-5.46V69.186c2.694 1 2.694 1 5.465.915h94.012a5.465 5.465 0 0 1 5.469 5.451z" opacity=".1"/>
        <path fill="#504F60" fill-rule="nonzero" d="M132.99 76.356v63.148a5.465 5.465 0 0 1-5.469 5.46H33.51a5.463 5.463 0 0 1-5.465-5.46V69.988c2.694.997 2.694.997 5.465.915h94.012a5.465 5.465 0 0 1 5.469 5.453z"/>
        <path fill="#000" fill-rule="nonzero" d="M132.722 99.702v20.195h-19.608c-5.53-.075-9.975-4.574-9.975-10.098 0-5.524 4.444-10.023 9.975-10.097h19.608z" opacity=".1"/>
        <path fill="#33323D" fill-rule="nonzero" d="M132.99 99.164v20.198H113.38c-5.53-.074-9.974-4.573-9.974-10.097 0-5.524 4.444-10.023 9.974-10.097l19.609-.004z"/>
        <ellipse cx="114.321" cy="109.8" fill="#000" fill-rule="nonzero" opacity=".1" rx="3.942" ry="3.937"/>
        <ellipse cx="114.589" cy="109.266" fill="#00D09C" fill-rule="nonzero" rx="3.942" ry="3.937"/>
        <path fill="#FBBEBE" fill-rule="nonzero" d="M167.027 98.99c.156 1.686-1.122 3.322-.75 4.973.08.353.233.687.288 1.044.154.98-.43 1.909-.99 2.729l-4.801 7.036a4.37 4.37 0 0 1-.685.845c-.917.817-2.295.732-3.5.976a5.985 5.985 0 0 0-2.346 1.036.15.15 0 0 0-.022.205c.404.55 1.061.859 1.744.818.127.166 0 .41-.183.529-.258.183-.612.227-.663.662a.719.719 0 0 0 .087.44c.194.296.495.505.84.584 1.662.507 3.458-.385 4.702-1.598 1.245-1.214 2.137-2.746 3.358-3.981.676-.683 1.444-1.269 2.14-1.931 1.39-1.322 2.469-2.929 3.511-4.538.314-.485.629-.983.76-1.545.133-.562.07-1.129.219-1.673.194-.713.716-1.28 1.15-1.88.853-1.17 1.421-2.604 1.31-4.046-.113-1.443-1.009-2.869-2.372-3.36a2.11 2.11 0 0 0-1.329-.08c-.559.172-.971.634-1.352 1.075l-.916 1.052c-.229.231-.41.505-.532.806a.843.843 0 0 0 .183.895"/>
        <path fill="#000" fill-rule="nonzero" d="M167.027 98.99c.156 1.686-1.122 3.322-.75 4.973.08.353.233.687.288 1.044.154.98-.43 1.909-.99 2.729l-4.801 7.036a4.37 4.37 0 0 1-.685.845c-.917.817-2.295.732-3.5.976a5.985 5.985 0 0 0-2.346 1.036.15.15 0 0 0-.022.205c.404.55 1.061.859 1.744.818.127.166 0 .41-.183.529-.258.183-.612.227-.663.662a.719.719 0 0 0 .087.44c.194.296.495.505.84.584 1.662.507 3.458-.385 4.702-1.598 1.245-1.214 2.137-2.746 3.358-3.981.676-.683 1.444-1.269 2.14-1.931 1.39-1.322 2.469-2.929 3.511-4.538.314-.485.629-.983.76-1.545.133-.562.07-1.129.219-1.673.194-.713.716-1.28 1.15-1.88.853-1.17 1.421-2.604 1.31-4.046-.113-1.443-1.009-2.869-2.372-3.36a2.11 2.11 0 0 0-1.329-.08c-.559.172-.971.634-1.352 1.075l-.916 1.052c-.229.231-.41.505-.532.806a.843.843 0 0 0 .183.895" opacity=".05"/>
        <path fill="#3F3D56" fill-rule="nonzero" d="M170.66 142.388c-1.047.639-2.354.677-3.573.53-.196-.025-.429-.04-.55.113-.183.22.033.549.257.719a5.29 5.29 0 0 0 2.454 1.008c.795.113 1.597.166 2.4.16 2.2.038 4.399.075 6.563-.24a.93.93 0 0 0 .367-.106.67.67 0 0 0 .27-.412c.15-.564-.137-1.168-.57-1.56-.432-.391-.987-.609-1.53-.82l-1.905-.74c-.447-.175-1.164-.636-1.65-.6-.912.067-1.775 1.505-2.532 1.948z"/>
        <path fill="#000" fill-rule="nonzero" d="M170.66 142.388c-1.047.639-2.354.677-3.573.53-.196-.025-.429-.04-.55.113-.183.22.033.549.257.719a5.29 5.29 0 0 0 2.454 1.008c.795.113 1.597.166 2.4.16 2.2.038 4.399.075 6.563-.24a.93.93 0 0 0 .367-.106.67.67 0 0 0 .27-.412c.15-.564-.137-1.168-.57-1.56-.432-.391-.987-.609-1.53-.82l-1.905-.74c-.447-.175-1.164-.636-1.65-.6-.912.067-1.775 1.505-2.532 1.948z" opacity=".05"/>
        <path fill="#464353" fill-rule="nonzero" d="M171.997 117.118c-.794 1.054-1.615 2.272-1.419 3.577.107.702.5 1.323.79 1.973.392.882.598 1.83.8 2.775.296 1.38.595 2.763.776 4.166.207 1.583-.766 6.164-.856 7.758-.022.385-.067.8-.335 1.077-.104.11-.244.197-.291.34a.581.581 0 0 0 .064.403c.447 1.007 1.361 1.757 2.382 2.185 1.02.429 3.482 1.168 4.594 1.207a.917.917 0 0 0 .433-.057.84.84 0 0 0 .334-.383c.797-1.523.03-6.937.042-8.656.01-1.433.35-2.857.287-4.288-.05-1.15-.366-2.273-.47-3.42-.184-1.877.16-3.764.507-5.62.264-1.424.53-2.848.869-4.254.207-.859.447-1.724.916-2.47.367-.59.881-1.085 1.308-1.647a7.428 7.428 0 0 0 1.467-5.443c-.026-.183-2.75.69-2.99.794-.979.414-1.88.993-2.664 1.712-.63.6-1.127 1.402-1.679 2.073-.78.951-1.551 1.908-2.312 2.872a161.51 161.51 0 0 0-2.553 3.326z"/>
        <path fill="#000" fill-rule="nonzero" d="M171.997 117.054c-.794 1.054-1.615 2.273-1.419 3.577.107.704.5 1.325.79 1.975.392.88.598 1.83.8 2.773.296 1.381.595 2.765.776 4.165.207 1.586-.766 6.165-.856 7.76-.022.384-.067.801-.335 1.077-.104.108-.244.196-.291.34a.58.58 0 0 0 .064.402c.447 1.008 1.361 1.757 2.382 2.196 1.02.44 3.482.822 4.594.859a.917.917 0 0 0 .433-.057.828.828 0 0 0 .334-.38c.797-1.524.03-6.59.042-8.31.01-1.436.35-2.858.287-4.291-.05-1.15-.366-2.273-.47-3.417-.184-1.88.16-3.767.507-5.623.264-1.422.53-2.846.869-4.254.207-.858.447-1.724.916-2.47.367-.59.881-1.085 1.308-1.647a7.425 7.425 0 0 0 1.467-5.443c-.026-.183-2.75.69-2.99.794-.979.416-1.88.995-2.664 1.714-.63.598-1.127 1.4-1.679 2.072-.78.95-1.551 1.908-2.312 2.873a138.218 138.218 0 0 0-2.553 3.315z" opacity=".05"/>
        <ellipse cx="163.167" cy="89.456" fill="#FBBEBE" fill-rule="nonzero" rx="4.448" ry="4.442"/>
        <path fill="#FBBEBE" fill-rule="nonzero" d="M167.173 89.269a5.76 5.76 0 0 0 3.693 2.573l-.335 1.218c-.58 2.09-1.23 4.301-2.846 5.75.183-.708-.052-1.464-.451-2.079-.4-.615-.96-1.098-1.51-1.576l-2.56-2.214a.77.77 0 0 1-.184-.216.65.65 0 0 1 0-.487c.327-1.014 1.258-1.647 2.016-2.332.38-.354.72-.75 1.014-1.179.511-.728.828.004 1.163.542z"/>
        <path fill="#464353" fill-rule="nonzero" d="M157.308 84.99l-.1-.835c.702.183 1.369-.414 1.818-1.03.449-.617.865-1.344 1.548-1.602.83-.311 1.71.183 2.503.6.889.493 1.864.81 2.872.934.161.005.32.03.475.077.517.183.762.83.837 1.418.075.588.055 1.212.31 1.735.183.398.524.692.733 1.084.55 1.05.018 2.487.592 3.518l-1.426-1.305c-.13-.12-.313-.244-.458-.143-.114.08-.123.254-.169.394-.137.406-.646.527-1.015.366-.368-.161-.638-.511-.916-.83-.63-.743-1.382-1.396-2.261-1.713a2.906 2.906 0 0 0-2.383.158c-.665.375-1.153 1.25-1.968 1.28-1.118.043-1.583-2.036-2.1-2.858.39-.293.514-.824.293-1.26.075-.03.799-.117.815.012z"/>
        <ellipse cx="154.417" cy="119.796" fill="#504F60" fill-rule="nonzero" rx="13.554" ry="1.957"/>
        <path fill="url(#a)" fill-rule="nonzero" d="M166.077 119.891a33.658 33.658 0 0 1-.386-1.914s.055-1.11-.444-1.943v-2.328c.142-.372.316-.731.519-1.074.366-.644 0-3.006 0-3.006s-1.369-3.33-1.037-5.441c.331-2.113-2.812-9.38-2.812-9.38.02-.7.119-1.396.296-2.075.033-.142.047-.289.04-.435v-.053.016c-.048-1.393-1.151-4.003-1.151-4.003l.148-4.975s.704-2.929-.443-6.873a36.55 36.55 0 0 1-.821-3.324c-.018-.095-.037-.183-.051-.276 2.362-.366 4.167-.66 4.167-.66s-1.37-5.727-2.296-6.73c-.926-1.003-1.666-4.153-1.666-4.153s-.482-4.043.297-5.225c.779-1.183.889-3.222.889-3.222s1.775-1.281 1.999-1.861c.223-.58.592-1.862.592-2.54 0-.68-.222-1.282-.149-1.648.074-.366-.518-1.719-.221-2.363a1.732 1.732 0 0 0 .117-.639 8.686 8.686 0 0 0-.156-1.68 4.776 4.776 0 0 0-1.76-.94l-.038-.153-.1-.403a1.956 1.956 0 0 0-.175-.102v-.147l-.016-.582.279-1.307c.55-2.273-2.491-2.612-2.491-2.612a1.603 1.603 0 0 0-.861-.754c-.61-.214-.101 3.42.183 3.661.214.183.878 1.314 1.199 1.874l.05.092c-.05.045-.096.094-.138.146l.115.79.018.12c-.201.25-.365.528-.485.826 0 0 .55.607.445 1.28-.104.674.17 1.53.183 1.575-.033-.039-.423-.46-.813-.357-.39.103-1.481.43-1.481.43s-.814.143-.733.322c.08.18-.55.967-.55.967l-2.188-2.072c-.022-.062-.046-.125-.064-.183a5.034 5.034 0 0 1-.183-.915 5.01 5.01 0 0 0 .7-.222 1.51 1.51 0 0 0 .604-.388c.222-.262.264-.617.354-.943.172-.637.55-1.202.812-1.808a5.873 5.873 0 0 0 .412-3.254 2.122 2.122 0 0 0-.335-.952c-.358-.49-1.006-.69-1.477-1.082-.471-.392-.775-.99-1.325-1.281-.497-.266-1.1-.235-1.66-.143a8.956 8.956 0 0 0-3.103 1.128c-.319.183-.67.408-1.037.34-.316-.057-.55-.308-.748-.55a.183.183 0 0 1 .01-.028.183.183 0 0 1-.025-.03 3.856 3.856 0 0 0-.34 1.637c0 .087 0 .183.01.261V36.494a.417.417 0 0 1-.016.115.833.833 0 0 1-.205.295 1.975 1.975 0 0 0-.184.243c0-.029.019-.058.03-.09a1.3 1.3 0 0 0-.228.69c-.01.18.05.357.165.495.11.106.23.202.358.285a4.16 4.16 0 0 0-.066.733 4.229 4.229 0 0 0 2.063 3.607c.026.06.05.123.074.183.28.732.49 1.593.397 2.38 0 .057-.016.115-.025.172-.01.057-.055.06-.08.091 0 0-3.615.037-4.465-.732-.85-.769-2.148 1.88-2.148 1.88s-1.296.25-1.556 0-1.776-.035-1.776-.035a3.27 3.27 0 0 0-2.26-.823 6.634 6.634 0 0 0-1.649-.916l-.04-.014a1.85 1.85 0 0 0-.815-.103s-1.778-1.464-2.297-2.255c-.518-.79-2.987-3.71-2.998-3.723v-.14l-.027-.425a1.525 1.525 0 0 1-.222.018c-.013-.042-.031-.092-.05-.148a8.182 8.182 0 0 0-.524-1.203s0-.536.156-.672c.156-.135-.064-2.103-.064-2.103s-1.602-3.74-3.037-.948c0 0-2.712 1.807-.436 3.912 0 0 .916.439 1.037.787.085.225.393.856.6 1.281l.093.183-.026.022.033.351.015.136c-.429.243-.72.485-.649.666a4 4 0 0 1 .259.967s3.148 3.939 3.555 5.62c0 0 8.443 5.012 11.22 5.37l-.492 2.498c-.072.678-.108 1.359-.11 2.04.037.537-.333 2.971-.333 2.971s-.482 3.58-.89 4.082c-.406.501-.333 2.648-.333 2.648a18.075 18.075 0 0 1-.55 3.042c-.406 1.36-.111 3.044-.111 3.044s-1.406 3.222 1.962 1.038c0 0 1.65-.102 3.56-.168v.183c0 .245 0 .51-.014.789-.025 1.845-.036 4.393.048 6.31.149 3.402 1.186 10.132 1.186 10.132v3.388c-.067.318-.1.642-.1.966a6.283 6.283 0 0 0 .917 3.385l.26 2.255s.609 1.486.62 2.38c-.003.071-.011.143-.026.213-.024.114-.033.23-.03.346-.034 1.025.584 3.478.584 3.478s.036 2.47.406 2.614c.317.122-.423 1.422-.643 1.795a.51.51 0 0 1-.013-.07l-.045.074c-.077.2-.116.412-.116.626a.896.896 0 0 0 .41.868c.704.43 1.082.787.484.93-.22.034-.437.08-.652.137 0-.028-.022-.057-.031-.083a.392.392 0 0 0-.244.432c.006.29.08.576.218.831.592 1.326 1.003 1.83 1.003 1.83l.284-.03a1.383 1.383 0 0 1-.165.305 1.18 1.18 0 0 1-.418.366 1.295 1.295 0 0 1-.508.174 1.43 1.43 0 0 0-1.048.51c-.367.477-.601 1.127.128 1.698l2.648.915s4.556.591 4.314-.43a31.398 31.398 0 0 1-.388-1.915 4.032 4.032 0 0 0-.367-1.81 2.351 2.351 0 0 0-.161-.267l.161-.017s.334-2.257.777-2.685c.103-.099.127-.183.103-.234.046-.123-.072-.194-.22-.236l-.033.09a2.163 2.163 0 0 0-.442-.05s-.148-1.18.334-1.61a.455.455 0 0 0 .093-.352 1.887 1.887 0 0 0-.05-.482.236.236 0 0 1-.017.03c-.242-1.073-1.063-2.777-1.063-2.777s-.037-1.073.26-1.503c.297-.43-.039-5.835-.039-5.835s.112-2.612-.221-3.83c-.334-1.216.406-2.65.406-2.65v-.095l-.042-.412a.106.106 0 0 0 0 .026c-.075-.692-.216-1.946-.32-2.524-.149-.824.038-4.759.038-4.759l.665-1.684 1.186 2.901 1.259 3.866s.623.816.638 1.647v.121a2.11 2.11 0 0 0-.015.258c-.022.489.112.971.383 1.379 0 0 .334 1.83.852 2.29.519.459.519 1.36.519 1.36s.629 2.65.916 3.11c.25.393.262 1.465.26 1.8v.095s.088.948.085 1.743V106.41c0 .216-.026.433-.077.644l-.011.036c0-.045 0-.09.013-.133a6.719 6.719 0 0 0-.184 1.647c-.016.952.129 2.08.706 2.746 1 1.145 1.63 1.003 1.63 1.003s-.481 1.431-1.075 1.718a.279.279 0 0 0-.062.04c0-.029-.011-.056-.015-.084a.697.697 0 0 0-.183.535c-.042.63.355 1.647.733 2.121.14.137.312.238.5.293a1.991 1.991 0 0 1-.297.154 1.07 1.07 0 0 1-.302.079c-.406.01-.789.196-1.048.508-.367.476-.601 1.126.128 1.697l2.648.915s4.527.58 4.288-.439z"/>
        <path fill="#2D293D" fill-rule="nonzero" d="M148.684 121.582l-2.565-.915c-.708-.57-.482-1.22-.125-1.698.249-.309.62-.494 1.015-.51.174-.021.34-.08.49-.173.162-.088.302-.214.406-.366a1.89 1.89 0 0 0 .292-.99s2.815-.824 3.584 0c.138.149.253.317.341.5.256.568.381 1.186.367 1.81 0 0 .143.893.375 1.914.233 1.021-4.18.428-4.18.428zM161.227 120.32l-2.566-.916c-.707-.57-.482-1.22-.125-1.697.247-.31.618-.495 1.014-.508.101-.01.2-.037.293-.08.068-.028.134-.06.198-.096.716-.394.698-1.36.698-1.36s2.813-.824 3.585 0c.103.111.193.234.27.366.481.833.428 1.944.428 1.944s.143.895.366 1.914c.224 1.02-4.161.432-4.161.432z"/>
        <path fill="#000" fill-rule="nonzero" d="M151.783 116.928c.138.149.252.317.341.5l-4.215.488a1.89 1.89 0 0 0 .291-.99s2.813-.822 3.583.002zM164.597 116.033v.789c-.656 1.078-3.829.842-4.75.302.067-.029.133-.061.198-.097.716-.394.698-1.36.698-1.36s2.813-.824 3.584 0c.104.111.194.234.27.366z" opacity=".1"/>
        <path fill="#464353" fill-rule="nonzero" d="M165.097 112.632a7.171 7.171 0 0 0-.5 1.074v2.828c-.719 1.18-4.444.787-4.948.143-.504-.644-1.03-2.321-.464-2.612.566-.291 1.04-1.719 1.04-1.719s-.611.143-1.579-1.003c-.967-1.146-.68-3.686-.5-4.294.18-.607 0-2.648 0-2.648s.037-1.434-.25-1.898c-.285-.465-.895-3.112-.895-3.112s0-.895-.503-1.36c-.502-.465-.824-2.292-.824-2.292-.294-.456-.42-1-.358-1.539.107-.895-.61-1.861-.61-1.861l-1.218-3.868-1.148-2.9-.645 1.683s-.183 3.937-.035 4.759c.149.822.367 3.007.367 3.007s-.717 1.431-.394 2.649c.322 1.217.205 3.832.205 3.832s.323 5.404.035 5.834c-.288.43-.251 1.504-.251 1.504s1.466 3.149 1.004 3.579c-.462.43-.322 1.61-.322 1.61s1.002 0 .573.43c-.429.43-.753 2.686-.753 2.686l-4.334.507s-.396-.5-.97-1.83c-.573-1.331.107-1.181.684-1.326.577-.144.213-.5-.47-.93-.68-.43-.285-1.396-.285-1.396s1.04-1.754.68-1.897c-.36-.142-.394-2.613-.394-2.613s-.717-2.929-.537-3.723c.18-.795-.574-2.684-.574-2.684l-.25-2.255a6.199 6.199 0 0 1-.789-4.26v-3.478s-1.004-6.729-1.147-10.13c-.092-2.178-.066-5.15-.037-7.004.019-1.04.037-1.73.037-1.73l15.482-1.61s-.015.713.28 2.296c.16.85.407 1.95.796 3.324 1.11 3.937.43 6.871.43 6.871l-.145 4.977s1.362 3.328 1.076 4.474a9.53 9.53 0 0 0-.29 2.079s3.046 7.266 2.724 9.379c-.323 2.112 1.002 5.441 1.002 5.441s.363 2.362.004 3.006z"/>
        <path fill="#000" fill-rule="nonzero" d="M156.246 93.984l4.713-.628s-2.67 2.722-4.713.628z" opacity=".05"/>
        <path fill="#000" fill-rule="nonzero" d="M160.277 88.756s.162 1.666-.86 2.292c0 0 1.828-.285.86-2.292zM159.988 83.46s-3.94 3.24-5.373 2.97c-1.434-.269 5.373-2.97 5.373-2.97zM150.403 95.503s-2.992.68-3.082 1.88c-.09 1.2 3.082-1.88 3.082-1.88z" opacity=".1"/>
        <path fill="#000" fill-rule="nonzero" d="M151.061 110.432s-4.228.787-3.027 1.323c1.2.536 3.172.967 3.172.967s1.365.07-.145-2.29z" opacity=".05"/>
        <g fill="#000" fill-rule="nonzero" opacity=".05">
            <path d="M147.18 112.608a.833.833 0 0 1-.387-.611l-.044.075s-.394.966.288 1.394c.077.05.152.1.22.147.126-.024.262-.042.392-.075.577-.143.212-.5-.47-.93zM152.626 112.32c.117-.105.114-.38.042-.731-.183.276-.236.708-.24 1.036a.893.893 0 0 1 .198-.304zM151.976 94.513a4.877 4.877 0 0 0-.286 1.316c.081-.31.191-.613.328-.904l-.042-.412zM161.66 92.635c.027-.129.04-.26.038-.392-.054.268-.09.515-.118.732.024-.111.05-.217.08-.34zM151.875 107.24c.058-.088.091-.385.106-.797a2.7 2.7 0 0 0-.207 1.005.96.96 0 0 1 .1-.208zM152.754 113.99a14.193 14.193 0 0 0-.493 2.196l-4.334.5s-.395-.5-.969-1.83a3.31 3.31 0 0 1-.123-.315c-.26.119-.366.388-.022 1.173.574 1.325.971 1.83.971 1.83l4.335-.501s.322-2.255.75-2.685c.22-.207.085-.315-.115-.368zM147.037 107.562s.035 2.469.394 2.612c.183-.409.302-.797.14-.86-.366-.143-.393-2.614-.393-2.614s-.717-2.929-.537-3.723c.18-.795-.574-2.684-.574-2.684l-.25-2.255a6.199 6.199 0 0 1-.789-4.26v-3.479s-1.004-6.728-1.147-10.129c-.092-2.178-.066-5.15-.037-7.005 0-.335.011-.631.017-.882l-.123.013s-.02.688-.037 1.73c-.029 1.854-.056 4.826.037 7.003.143 3.4 1.145 10.13 1.145 10.13v3.478a6.202 6.202 0 0 0 .79 4.26l.25 2.255s.753 1.896.573 2.685c-.18.789.54 3.725.54 3.725zM159.795 115.722a4.183 4.183 0 0 1-.687-1.7c-.442.398.066 1.947.55 2.562.5.644 4.228 1.037 4.948-.145v-.68c-.977.956-4.338.572-4.81-.037zM165.242 111.676a7.228 7.228 0 0 0-.502 1.075v.507c.082-.183.198-.428.366-.718.114-.282.167-.584.158-.887 0 0-.017.016-.022.023zM160.015 112.242c.137-.276.255-.56.354-.851 0 0-.61.143-1.578-1.003-.704-.833-.744-2.407-.643-3.436-.183.61-.468 3.15.5 4.296.632.749 1.11.946 1.367.994zM158.146 104.304c.063.705.087 1.413.071 2.121.018-.112.043-.222.074-.331.183-.61 0-2.649 0-2.649s.036-1.433-.251-1.898c-.288-.465-.887-3.115-.887-3.115s0-.895-.502-1.36c-.503-.465-.825-2.292-.825-2.292-.296-.455-.426-1-.367-1.54.109-.894-.608-1.86-.608-1.86l-1.219-3.866-1.147-2.9-.647 1.684s0 .213-.022.55l.524-1.368 1.148 2.894 1.218 3.866s.717.966.609 1.861c-.06.54.07 1.084.366 1.54 0 0 .323 1.83.825 2.291.502.461.5 1.36.5 1.36s.61 2.649.896 3.112c.286.463.244 1.9.244 1.9z"/>
        </g>
        <path fill="#FFCDD3" fill-rule="nonzero" d="M161.155 38.447l-.27 1.307.017.582.011.428-1.495.154-.167-.31c-.31-.56-.953-1.698-1.16-1.874-.277-.23-.77-3.865-.183-3.65.36.14.657.408.832.753 0 0 2.945.337 2.415 2.61z"/>
        <path fill="#000" fill-rule="nonzero" d="M160.913 40.764l-1.495.154-.167-.31a1.319 1.319 0 0 1 1.65-.27l.012.426z" opacity=".1"/>
        <path fill="#625EEB" fill-rule="nonzero" d="M161.29 41.473l-1.971.455-.042-.293-.112-.788s.78-1.04 1.91-.26l.098.4.118.486z"/>
        <path fill="#FFCDD3" fill-rule="nonzero" d="M129.349 38.59l-2.106 1.127-.183-.395c-.2-.42-.499-1.05-.581-1.281-.125-.348-1.003-.787-1.003-.787-2.199-2.104.422-3.912.422-3.912 1.389-2.791 2.932.948 2.932.948s.216 1.971.064 2.103c-.152.132-.152.672-.152.672a8.257 8.257 0 0 1 .607 1.525z"/>
        <path fill="#000" fill-rule="nonzero" d="M129.349 38.59l-2.106 1.127-.183-.395c.296-.25 1.35-1.098 1.697-1.064.165.021.332.025.498.013.059.196.094.319.094.319z" opacity=".1"/>
        <path fill="#625EEB" fill-rule="nonzero" d="M129.563 39.225l-2.366 1.164-.048-.507-.033-.351s1.371-1.174 1.776-1.128c.205.03.413.03.618 0l.027.425.026.397z"/>
        <path fill="#FFCDD3" fill-rule="nonzero" d="M155.42 47.128s-10.313 1.163-8.385.537c1.341-.438 1.875-1.282 1.986-2.233.092-.793-.113-1.648-.383-2.38a10.37 10.37 0 0 0-.916-1.861s7.88-4.331 6.306-.394a6.341 6.341 0 0 0-.447 1.865 5.264 5.264 0 0 0 .203 1.89 5.624 5.624 0 0 0 1.637 2.576z"/>
        <path fill="#000" fill-rule="nonzero" d="M154.023 40.792a6.341 6.341 0 0 0-.448 1.865c-.742.624-1.555.582-2.602.582-.802 0-1.693.194-2.335-.192a10.37 10.37 0 0 0-.916-1.862s7.878-4.33 6.3-.393z" opacity=".1"/>
        <ellipse cx="150.834" cy="39.254" fill="#FFCDD3" fill-rule="nonzero" rx="4.264" ry="4.259"/>
        <path fill="#000" fill-rule="nonzero" d="M155.42 47.128s-10.313 1.163-8.385.537c1.341-.438 1.875-1.282 1.986-2.233.514-.55 1.545-.958 2.2-1.17a3.09 3.09 0 0 1 1.869-.031c.24.072.47.178.68.315.3.997.872 1.89 1.65 2.582zM161.29 41.473l-1.971.455-.042-.293a1.746 1.746 0 0 1 1.896-.648l.118.486zM129.563 39.225l-2.366 1.164-.048-.507a17.266 17.266 0 0 1 2.383-1.056l.03.399zM159.5 73.085c-3.997.637-9.678 1.45-10.58 1.175-.749-.227-3.139-.203-5.219-.132.019-1.04.037-1.73.037-1.73l15.482-1.61s-.015.714.28 2.297z" opacity=".1"/>
        <path fill="#3F3D56" fill-rule="nonzero" d="M163.484 72.148s-13.152 2.255-14.563 1.83c-1.411-.425-8.66.035-8.66.035-3.261 2.183-1.9-1.038-1.9-1.038s-.286-1.682.108-3.042c.265-.999.446-2.017.541-3.046 0 0-.071-2.149.323-2.65.394-.502.86-4.08.86-4.08s.358-2.434.323-2.97c-.034-.537.107-2.042.107-2.042l.467-2.505c-2.688-.357-10.86-5.369-10.86-5.369-.394-1.682-3.44-5.62-3.44-5.62a4.138 4.138 0 0 0-.25-.966c-.215-.572 3.01-1.718 3.01-1.718s2.4 2.928 2.903 3.723c.502.794 2.221 2.255 2.221 2.255a1.73 1.73 0 0 1 .788.102l.042.013a6.39 6.39 0 0 1 1.604.915 3.118 3.118 0 0 1 2.186.824s1.466-.216 1.72.035c.256.25 1.505 0 1.505 0s1.254-2.649 2.079-1.88c.824.769 4.323.732 4.323.732.465-.619 1.6-1.062 2.309-1.281a3.103 3.103 0 0 1 1.869-.031c.264.078.512.202.733.366l2.128 2.075s.608-.789.537-.966c-.072-.178.716-.322.716-.322s1.04-.322 1.433-.43c.394-.108.755.318.788.357-.013-.046-.282-.916-.183-1.575.099-.658-.43-1.28-.43-1.28 1.253-3.08 4.084-.502 4.084-.502s.323 1.682.037 2.326c-.286.644.286 2.004.214 2.363-.071.359.145.967.145 1.647 0 .681-.366 1.968-.574 2.541-.207.573-1.935 1.861-1.935 1.861s-.108 2.041-.861 3.222c-.753 1.18-.28 5.218-.28 5.218s.716 3.15 1.612 4.153c.896 1.003 2.221 6.72 2.221 6.72z"/>
        <path fill="#000" fill-rule="nonzero" d="M144.312 48.595s-.394-1.181-.754-1.282a8.296 8.296 0 0 1-1.039-.465l.231-.44s1.345.365 1.562.762c.216.398 0 1.425 0 1.425zM137.108 45.983c-.072.366-3.262.679-3.262.679l1.612-1.615.04.015a6.39 6.39 0 0 1 1.61.92z" opacity=".1"/>
        <ellipse cx="127.879" cy="41.07" fill="#575988" fill-rule="nonzero" rx="1" ry="1"/>
        <ellipse cx="128.245" cy="41.643" fill="#575988" fill-rule="nonzero" rx="1" ry="1"/>
        <ellipse cx="128.604" cy="42.172" fill="#575988" fill-rule="nonzero" rx="1" ry="1"/>
        <ellipse cx="128.98" cy="42.743" fill="#575988" fill-rule="nonzero" rx="1" ry="1"/>
        <ellipse cx="162.762" cy="42.712" fill="#575988" fill-rule="nonzero" rx="1" ry="1"/>
        <ellipse cx="162.799" cy="43.241" fill="#575988" fill-rule="nonzero" rx="1" ry="1"/>
        <ellipse cx="162.83" cy="43.768" fill="#575988" fill-rule="nonzero" rx="1" ry="1"/>
        <path fill="#000" fill-rule="nonzero" d="M144.325 58.295c-.035-.042 8.045 10.148 14.316 4.26.005.002-9.904 1.343-14.316-4.26zM139.688 63.593s4.834.131 5.34 1.52v1.447a.928.928 0 0 1-.9 0c-.487-.264-3.41-1.747-4.44-1.033v-1.934z" opacity=".1"/>
        <path fill="#3F3D56" fill-rule="nonzero" d="M139.778 63.593s4.623.126 5.107 1.451v1.376a.888.888 0 0 1-.861 0c-.466-.248-3.26-1.663-4.246-.982v-1.845z"/>
        <path fill="#000" fill-rule="nonzero" d="M142.327 53.108a15.532 15.532 0 0 0 1.875 3.212 12.612 12.612 0 0 0 2.932 2.832s-4.726-5.381-4.807-6.044zM140.745 47.498s.807 3.478 2.885 4.658l-2.885-4.658zM139.508 47.85c-.02-.065-.716 2.745 2.68 4.306 0 0-1.443-.488-2.68-4.306zM160.618 45.518c-.053 0 1.675 1.098 2.146 1.61 0 0-1.125-1.684-2.146-1.61z" opacity=".1"/>
        <path fill="#2D293D" fill-rule="nonzero" d="M149.681 43.114a.671.671 0 0 0 .733.665c1.3.08 2.654.137 3.849-.366.224-.08.425-.213.586-.388.213-.262.255-.617.341-.943.169-.637.528-1.203.786-1.808a6.052 6.052 0 0 0 .424-3.25 2.195 2.195 0 0 0-.327-.95c-.344-.492-.973-.691-1.43-1.083-.455-.392-.749-.99-1.282-1.281-.48-.267-1.068-.234-1.609-.143a8.453 8.453 0 0 0-3.002 1.126c-.31.183-.649.408-1.004.34-.312-.058-.539-.32-.733-.565a3.96 3.96 0 0 0-.306 1.858.797.797 0 0 1-.01.28.842.842 0 0 1-.199.294c-.32.366-.52.961-.203 1.338.137.163.35.253.483.42.24.298.16.732.154 1.112a.572.572 0 0 0 .096.377.55.55 0 0 0 .526.127c.181-.055.372-.073.56-.053a.94.94 0 0 1 .488.366c.592.77.826 1.609 1.08 2.527z"/>
        <g fill="#000" fill-rule="nonzero" opacity=".1">
            <path d="M155.001 42.7a1.466 1.466 0 0 1-.586.389c-1.202.5-2.555.443-3.849.366a.903.903 0 0 1-.401-.09c-.198-.115-.273-.357-.334-.576-.252-.916-.485-1.756-1.086-2.519a.942.942 0 0 0-.488-.375c-.188-.018-.379 0-.56.053a.55.55 0 0 1-.526-.125.572.572 0 0 1-.096-.377c0-.384.086-.814-.154-1.113-.133-.166-.346-.256-.484-.42a.834.834 0 0 1-.082-.853c-.229.366-.326.825-.06 1.14.137.163.35.252.483.419.24.3.16.732.154 1.113a.569.569 0 0 0 .094.377.55.55 0 0 0 .528.126c.181-.054.372-.072.56-.053a.94.94 0 0 1 .488.366c.6.763.834 1.602 1.087 2.52.03.227.142.434.317.58a.89.89 0 0 0 .403.089c1.3.08 2.653.139 3.848-.366.225-.08.426-.213.587-.388.08-.104.142-.22.183-.345.002.024-.011.044-.026.063zM146.707 36.494a.626.626 0 0 0 .13-.216.797.797 0 0 0 0-.28 3.966 3.966 0 0 1 .2-1.541l-.024-.028a3.931 3.931 0 0 0-.306 1.856c.005.07.005.14 0 .209z"/>
        </g>
        <path fill="#000" fill-rule="nonzero" d="M148.92 45.695s5.328.707 5.806-.093M159.277 43.493s2.961 0 3.612 1.113" opacity=".1"/>
        <path fill="#3F3D56" fill-rule="nonzero" d="M175.845 142.36a4.7 4.7 0 0 1-3.198 1.194c-.3 0-.716.057-.718.357a.503.503 0 0 0 .088.245 2.94 2.94 0 0 0 1.65 1.294c.64.194 1.326.161 1.995.127l1.952-.101c.366-.02.733-.038 1.1-.084.366-.046.765-.121 1.148-.183a15.045 15.045 0 0 1 2.843-.132c.253.01.55 0 .7-.183.15-.183.073-.533.016-.807-.117-.566 0-1.159-.108-1.726-.183-.996-1.046-1.76-1.992-2.12-.88-.333-2.437-.716-3.27-.16-.877.585-1.414 1.56-2.206 2.28z"/>
        <path fill="#464353" fill-rule="nonzero" d="M177.784 109c.172.819.966 1.445.988 2.28.02.67-.458 1.231-.803 1.804a12.033 12.033 0 0 0-.819 1.852 28.282 28.282 0 0 1-2.404 4.778c-.458.732-.972 1.513-.867 2.364.073.398.214.781.416 1.132l1.374 2.727c.301.544.537 1.122.702 1.722.12.518.13 1.054.2 1.582.216 1.673 1.002 3.357.537 4.978-.04.14-.183.308-.295.21.454.848.819 1.701.784 2.662-.018.503-.172 1.029.013 1.497.079.196.216.38.214.59 0 .139-.064.269-.078.404-.039.386.317.709.685.831.368.123.77.114 1.142.225.714.214 1.226.83 1.832 1.256a3.905 3.905 0 0 0 2.111.686.532.532 0 0 0 .312-.062.503.503 0 0 0 .172-.377 2.093 2.093 0 0 0-.755-1.82.824.824 0 0 1-.28-.292.706.706 0 0 1-.026-.328c.11-1.5.084-3.007-.08-4.503a6.83 6.83 0 0 1-.072-1.433c.039-.399.16-.794.116-1.191s-.248-.76-.367-1.142c-.213-.681-.154-1.413-.183-2.125-.037-1.238-.32-2.453-.603-3.661-.112-.474-.235-.97-.57-1.322-.286-.298-.748-.584-.64-.98.06-.147.15-.28.262-.39.269-.337.387-.768.327-1.194a.537.537 0 0 0 .617-.29c2.232-1.052 4.032-3.157 4.835-5.49.047-.174.12-.339.216-.491.207-.29.566-.414.885-.573 1-.503 1.691-1.446 2.326-2.368.366-.535.733-1.088.898-1.717a5.62 5.62 0 0 0 .122-1.24l.057-2.15a1.16 1.16 0 0 0-.04-.421 1.052 1.052 0 0 0-.233-.34 4.141 4.141 0 0 0-2.283-1.23c-.587-.105-1.186-.085-1.78-.134-1.15-.095-2.287-.452-3.438-.366-1.809.133-3.42 1.385-4.272 2.985-.298.564-.613 1.054-1.255 1.065z"/>
        <path fill="#625EEB" fill-rule="nonzero" d="M167.741 95.016a2.4 2.4 0 0 1-.131.98c-.142.3-.495.534-.805.411.093-.21-.154-.45-.385-.424a.72.72 0 0 0-.507.435 1.618 1.618 0 0 0-.147.994c.073.421.317.826.253 1.249-.051.351-.31.7-.172 1.026.089.15.2.283.331.398a1.12 1.12 0 0 1-.119 1.537l3.467.07c-.126.578.134 1.17.431 1.684a10.63 10.63 0 0 0 7.924 5.167.688.688 0 0 0-.167 1.052c.283.28.761.246 1.115.064.353-.18.63-.481.953-.714a2.935 2.935 0 0 1 1.959-.527c.434.042.856.183 1.292.205 1.282.068 2.382-.854 3.617-1.232.9-.276 1.92-.276 2.676-.838.326-.241.594-.639.498-1.03a1.722 1.722 0 0 0-.366-.606c-.435-.562-.691-1.238-1.003-1.876a11.223 11.223 0 0 0-2.505-3.354 22.412 22.412 0 0 0-2.485-1.881 4.238 4.238 0 0 0-.67-.405c-.305-.133-.642-.197-.917-.366-.407-.256-.641-.708-.955-1.072-.687-.802-1.742-1.17-2.59-1.8-.567-.422-1.07-.979-1.747-1.182-.33-.1-.68-.108-1.01-.207-.75-.227-1.296-.891-2.03-1.16-.582-.213-1.223-.158-1.833-.233a4.293 4.293 0 0 1-1.915-.728c-.184-.15-.39-.27-.61-.355-.93-.282-1.005 1.446-1.1 2.044-.123.89-.347 1.774-.347 2.674z"/>
        <path fill="#FBBEBE" fill-rule="nonzero" d="M168.647 100.811c.156 1.688-1.12 3.322-.748 4.975.079.352.231.687.286 1.044.156.979-.43 1.907-.99 2.727l-4.801 7.038a4.427 4.427 0 0 1-.685.845c-.917.815-2.295.732-3.5.974a6.051 6.051 0 0 0-2.346 1.036.152.152 0 0 0-.03.21c.405.55 1.06.859 1.743.819.126.164 0 .41-.174.529-.257.183-.612.225-.663.662a.731.731 0 0 0 .088.44c.194.294.494.503.839.582 1.662.508 3.458-.385 4.702-1.598 1.245-1.214 2.137-2.746 3.358-3.98.676-.684 1.444-1.268 2.14-1.93 1.39-1.324 2.47-2.93 3.511-4.538.314-.485.63-.983.76-1.545.131-.562.07-1.131.219-1.675.194-.712.716-1.281 1.15-1.878.853-1.171 1.423-2.604 1.31-4.048-.114-1.445-1.009-2.869-2.372-3.36a2.134 2.134 0 0 0-1.329-.08c-.559.172-.971.634-1.352 1.077l-.916 1.05a2.45 2.45 0 0 0-.515.807.843.843 0 0 0 .183.897"/>
        <path fill="#625EEB" fill-rule="nonzero" d="M171.08 93.889c-.63.036-1.325.099-1.77.549a2.516 2.516 0 0 0-.447.7c-.432.88-.854 1.8-.885 2.781-.026.784.201 1.55.32 2.325.1.644-.152 1.301-.2 1.953.783-.24 1.817-.566 2.526-.97.484-.277.951-.591 1.479-.767.753-.25 2.016.183 2.732.53.039-.5-.339-1.376-.298-1.88.005-.211.043-.42.112-.621.107-.213.234-.414.379-.603.56-.908.47-2.073-.222-2.886-.636-.714-1.63-.981-2.58-1.098-.598-.07-1.2-.09-1.802-.063"/>
    </g>
</svg>
